<svg width="17" height="16" viewBox="0 0 17 16" fill="none" xmlns="http://www.w3.org/2000/svg">
<g id="carbon:view">
<path id="Vector" d="M15.97 7.83C15.382 6.30882 14.361 4.99331 13.0334 4.04604C11.7058 3.09878 10.1298 2.56129 8.50003 2.5C6.87029 2.56129 5.29423 3.09878 3.96663 4.04604C2.63904 4.99331 1.61811 6.30882 1.03003 7.83C0.990315 7.93985 0.990315 8.06015 1.03003 8.17C1.61811 9.69118 2.63904 11.0067 3.96663 11.954C5.29423 12.9012 6.87029 13.4387 8.50003 13.5C10.1298 13.4387 11.7058 12.9012 13.0334 11.954C14.361 11.0067 15.382 9.69118 15.97 8.17C16.0097 8.06015 16.0097 7.93985 15.97 7.83ZM8.50003 12.5C5.85003 12.5 3.05003 10.535 2.03503 8C3.05003 5.465 5.85003 3.5 8.50003 3.5C11.15 3.5 13.95 5.465 14.965 8C13.95 10.535 11.15 12.5 8.50003 12.5Z" fill="white" fill-opacity="0.7"/>
<path id="Vector_2" d="M8.5 5C7.90666 5 7.32664 5.17595 6.83329 5.50559C6.33994 5.83524 5.95543 6.30377 5.72836 6.85195C5.5013 7.40013 5.44189 8.00333 5.55765 8.58527C5.6734 9.16721 5.95912 9.70176 6.37868 10.1213C6.79824 10.5409 7.33279 10.8266 7.91473 10.9424C8.49667 11.0581 9.09987 10.9987 9.64805 10.7716C10.1962 10.5446 10.6648 10.1601 10.9944 9.66671C11.3241 9.17336 11.5 8.59334 11.5 8C11.5 7.20435 11.1839 6.44129 10.6213 5.87868C10.0587 5.31607 9.29565 5 8.5 5ZM8.5 10C8.10444 10 7.71776 9.8827 7.38886 9.66294C7.05996 9.44318 6.80362 9.13082 6.65224 8.76537C6.50087 8.39991 6.46126 7.99778 6.53843 7.60982C6.6156 7.22186 6.80608 6.86549 7.08579 6.58579C7.36549 6.30608 7.72186 6.1156 8.10982 6.03843C8.49778 5.96126 8.89992 6.00087 9.26537 6.15224C9.63082 6.30362 9.94318 6.55996 10.1629 6.88886C10.3827 7.21776 10.5 7.60444 10.5 8C10.5 8.53043 10.2893 9.03914 9.91421 9.41421C9.53914 9.78929 9.03043 10 8.5 10Z" fill="white" fill-opacity="0.7"/>
</g>
</svg>
