<svg width="17" height="17" viewBox="0 0 17 17" fill="none" xmlns="http://www.w3.org/2000/svg">
<g id="Frame 124">
<path id="Vector" opacity="0.16" d="M13.1528 15.571H4.57959V6.41165C5.15205 6.41165 5.68604 6.12588 6.00388 5.64959L8.34318 2.13971C8.59417 1.76319 8.93427 1.45448 9.33325 1.24101C9.73224 1.02753 10.1778 0.915898 10.6303 0.916016H10.8254C10.9584 0.915944 11.0899 0.944853 11.2106 1.00073C11.3313 1.05661 11.4384 1.13812 11.5245 1.23958C11.6105 1.34105 11.6734 1.46004 11.7088 1.58828C11.7442 1.71652 11.7512 1.85094 11.7294 1.98217L10.9912 6.41165H14.2519C14.523 6.41154 14.7907 6.4716 15.0358 6.58748C15.2808 6.70336 15.4971 6.87219 15.669 7.08177C15.8409 7.29136 15.9642 7.53649 16.0299 7.79948C16.0956 8.06247 16.1021 8.33676 16.049 8.60258L14.9499 14.0982C14.8668 14.5136 14.6424 14.8874 14.3147 15.156C13.987 15.4245 13.5764 15.5712 13.1528 15.571Z" fill="white" fill-opacity="0.7"/>
<path id="Vector_2" d="M10.9913 6.41157L10.0882 6.26136C10.0663 6.39252 10.0734 6.52685 10.1087 6.65502C10.144 6.7832 10.2069 6.90214 10.2928 7.00359C10.3787 7.10505 10.4857 7.18657 10.6063 7.24251C10.727 7.29844 10.8583 7.32745 10.9913 7.32751V6.41157ZM0.915939 6.41157V5.49563C0.673017 5.49563 0.440044 5.59213 0.268272 5.76391C0.0965004 5.93568 0 6.16865 0 6.41157H0.915939ZM2.74782 16.4869H13.1529V14.655H2.74782V16.4869ZM14.252 5.49563H10.9913V7.32751H14.252V5.49563ZM11.8944 6.56179L12.6326 2.13322L10.8264 1.83188L10.0891 6.26136L11.8953 6.56179H11.8944ZM10.8264 9.93812e-08H10.6313V1.83188H10.8264V9.93812e-08ZM7.58214 1.63129L5.27764 5.08804L6.80176 6.10473L9.10443 2.64706L7.58031 1.63037L7.58214 1.63129ZM4.51558 5.49563H0.915939V7.32751H4.51558V5.49563ZM0 6.41157V13.7391H1.83188V6.41157H0ZM15.8476 14.2777L16.9467 8.78202L15.1505 8.42298L14.0514 13.9186L15.8476 14.2777ZM5.27764 5.08804C5.19397 5.21345 5.08064 5.31626 4.9477 5.38737C4.81477 5.45847 4.66634 5.49566 4.51558 5.49563V7.32751C4.96793 7.32748 5.41328 7.21577 5.8121 7.0023C6.21091 6.78883 6.55086 6.48021 6.80176 6.10382L5.27764 5.08713V5.08804ZM12.6326 2.13322C12.6764 1.87084 12.6625 1.60208 12.5919 1.34561C12.5213 1.08915 12.3956 0.851142 12.2238 0.648133C12.0519 0.445124 11.8378 0.281986 11.5965 0.170059C11.3552 0.0581313 11.0924 0.000100402 10.8264 9.93812e-08V1.83188L12.6326 2.13322ZM14.252 7.32751C14.3875 7.32746 14.5214 7.35749 14.6439 7.41543C14.7665 7.47337 14.8746 7.55778 14.9606 7.66257C15.0465 7.76737 15.1081 7.88993 15.141 8.02143C15.1739 8.15292 15.1771 8.29007 15.1505 8.42298L16.9467 8.78202C17.0264 8.38338 17.0166 7.97202 16.9181 7.5776C16.8196 7.18318 16.6348 6.81554 16.377 6.50117C16.1193 6.18681 15.795 5.93355 15.4275 5.75967C15.06 5.58579 14.6585 5.49561 14.252 5.49563V7.32751ZM13.1529 16.4869C13.7882 16.4869 14.4039 16.2668 14.8952 15.864C15.3865 15.4612 15.7231 14.9006 15.8476 14.2777L14.0514 13.9186C14.0099 14.1262 13.8978 14.313 13.7342 14.4472C13.5706 14.5815 13.3646 14.6549 13.1529 14.655V16.4869ZM10.6304 9.93812e-08C10.0271 -0.000140396 9.43316 0.148685 8.90123 0.433262C8.36931 0.71784 7.9168 1.12936 7.58214 1.63129L9.10627 2.64798C9.27341 2.39713 9.49988 2.1914 9.76559 2.04904C10.0313 1.90667 10.328 1.83208 10.6295 1.83188V9.93812e-08H10.6304ZM2.74782 14.655C2.50489 14.655 2.27192 14.5585 2.10015 14.3868C1.92838 14.215 1.83188 13.982 1.83188 13.7391H0C0 14.4679 0.289501 15.1668 0.804817 15.6821C1.32013 16.1974 2.01905 16.4869 2.74782 16.4869V14.655Z" fill="white" fill-opacity="0.7"/>
<g id="Vector_3">
<path d="M4.57959 6.41113V15.5705V6.41113Z" fill="white" fill-opacity="0.7"/>
<path d="M4.57959 6.41113V15.5705" stroke="white" stroke-opacity="0.7"/>
</g>
</g>
</svg>
