<svg width="18" height="18" viewBox="0 0 18 18" fill="none" xmlns="http://www.w3.org/2000/svg">
<g id="Frame 159">
<path id="Vector" d="M17.0068 0H0.993156C0.444651 0 0 0.444651 0 0.993156V17.0068C0 17.5553 0.444651 18 0.993156 18H17.0068C17.5553 18 18 17.5553 18 17.0068V0.993156C18 0.444651 17.5553 0 17.0068 0Z" fill="#3D5A98"/>
<path id="Vector_2" d="M12.4201 17.9999V10.9621H14.947L15.3249 8.21954H12.4201V6.46895C12.4201 5.67503 12.6567 5.13296 13.8741 5.13296H15.4284V2.67598C14.6757 2.60267 13.9194 2.56781 13.1627 2.57156C10.925 2.57156 9.38384 3.84612 9.38384 6.19714V8.21954H6.85693V10.9621H9.38384V17.9999H12.4201Z" fill="white"/>
</g>
</svg>
